HIERARCHY
ROOT pelvis
{
  OFFSET 0 100 0
  CHANNELS 6 Xposition Yposition Zposition Zrotation Xrotation Yrotation
  JOINT pelvis_right_femur
  {
    OFFSET -10.78128 -3.44521 -0.5502486
    CHANNELS 3 Zrotation Xrotation Yrotation
    JOINT right_femur_tibia
    {
      OFFSET -0.8047443 -44.0398 -0.1307829
      CHANNELS 3 Zrotation Xrotation Yrotation
      JOINT right_tibia_foot
      {
        OFFSET 3.006224 -47.83518 -5
        CHANNELS 3 Zrotation Xrotation Yrotation
        End Site
        {
          OFFSET 0 -5 15
        }
      }
    }
  }
  JOINT pelvis_left_femur
  {
    OFFSET 10.78128 -3.44521 -0.5502486
    CHANNELS 3 Zrotation Xrotation Yrotation
    JOINT left_femur_tibia
    {
      OFFSET 0.8047443 -44.0398 -0.1307829
      CHANNELS 3 Zrotation Xrotation Yrotation
      JOINT left_tibia_foot
      {
        OFFSET -4.370144 -48.10324 -4.275266
        CHANNELS 3 Zrotation Xrotation Yrotation
        End Site
        {
          OFFSET 0 -5 15
        }
      }
    }
  }
  JOINT pelvis_spine1
  {
    OFFSET 0 6.468898 -3.129235
    CHANNELS 3 Zrotation Xrotation Yrotation
    JOINT spine1
    {
      OFFSET 0 23.15396 4.99043
      CHANNELS 3 Zrotation Xrotation Yrotation
      JOINT spine2
      {
        OFFSET 0 20.79997 -5.064912
        CHANNELS 3 Zrotation Xrotation Yrotation
        JOINT neck
        {
          OFFSET 0 14.38658 9.616178
          CHANNELS 3 Zrotation Xrotation Yrotation
          End Site
          {
            OFFSET 0 20 0
          }
        }
      }
      JOINT right_manubrium
      {
        OFFSET -5.722621 16.35077 3.967754
        CHANNELS 3 Zrotation Xrotation Yrotation
        JOINT right_clavicle
        {
          OFFSET -13.16364 1.694482 -4.693211
          CHANNELS 3 Zrotation Xrotation Yrotation
          JOINT right_humerus
          {
            OFFSET -28.5034 -0.3100689 -2.792744
            CHANNELS 3 Zrotation Xrotation Yrotation
            JOINT right_radius
            {
              OFFSET -25.15693 0.02248979 -1.271978
              CHANNELS 3 Zrotation Xrotation Yrotation
              End Site
              {
                OFFSET -15 0 0
              }
            }
          }
        }
      }
      JOINT left_manubrium
      {
        OFFSET 5.722621 16.35077 3.967754
        CHANNELS 3 Zrotation Xrotation Yrotation
        JOINT left_clavicle
        {
          OFFSET 13.16364 1.694482 -4.693211
          CHANNELS 3 Zrotation Xrotation Yrotation
          JOINT left_humerus
          {
            OFFSET 29.39168 -1.063119 -2.237045
            CHANNELS 3 Zrotation Xrotation Yrotation
            JOINT left_radius
            {
              OFFSET 24.59957 -0.9528479 0.9047498
              CHANNELS 3 Zrotation Xrotation Yrotation
              End Site
              {
                OFFSET 15 -0 -0
              }
            }
          }
        }
      }
    }
  }
}
MOTION
Frames: 13
Frame Time: 0.0416666666667
0 103.5113 0 2.435728 -2.407407 0.2182052 1.253326 -10.89006 7.968134 -0 37.72132 -0 -4.593902 -17.98449 -3.663835 -7.980295 11.53924 -23.72886 -0 4.222819 -0 8.722346 -15.12907 26.35897 -2.630508 -3.565698 5.193791 2.953279 9.924328 -7.677837 1.558094 22.00715 5.565551 2.055144 -25.66926 9.359408 5.891581 -19.43315 10.55465 85.62579 34.28698 -19.8128 -0 0 15.41938 -6.552448 8.206734 3.251102 5.892949 -20.51045 -1.204876 -95.69199 26.52613 24.27046 0 0 -13.02592 9.341896 17.2208 3.45746
0.2651946 103.4692 1.362644 1.844808 -1.244858 0.270085 2.128481 -13.75346 8.658438 -0 37.7427 -0 -4.788813 -18.23286 -3.824016 -7.682112 11.50478 -23.89302 -0 4.425832 -0 8.028366 -16.459 26.44648 -2.677677 -3.628668 5.240994 2.908928 9.929379 -7.627409 1.586135 22.10033 5.465332 1.98949 -25.53796 9.323392 5.90419 -19.47408 10.51012 85.49992 34.26347 -19.64234 -0 0 15.58257 -6.580576 8.21839 3.220118 5.853819 -20.44684 -1.189561 -95.83872 26.60437 24.42927 0 0 -12.65409 9.26371 17.43735 3.50923
0.4990133 103.3305 2.910672 1.127031 -0.7711091 0.3459868 3.065222 -17.1746 7.922341 -0 36.19228 -0 -5.652869 -16.18419 -3.440122 -7.111942 11.69401 -23.35811 -0 4.778577 -0 6.307843 -18.27592 25.54667 -2.510493 -3.399154 4.996931 3.152022 9.930777 -7.893745 1.451027 21.72186 5.906768 2.282638 -26.23593 9.495602 5.864271 -19.30214 10.68942 86.17391 34.20905 -20.65724 -0 0 14.77397 -6.288716 7.967965 3.269146 5.992039 -20.76329 -1.405596 -95.36934 26.64216 23.91635 0 0 -14.4446 9.358663 16.48309 3.645141
0.7160271 103.1222 4.637093 0.4917963 0.007672859 0.4183132 4.086176 -20.68207 7.900451 -0 34.44879 -0 -5.943974 -14.70281 -3.260059 -6.669269 11.7558 -22.85557 -0 5.031589 -0 5.520813 -19.65423 25.02075 -2.400823 -3.254189 4.849576 3.290479 9.928818 -8.050303 1.370649 21.48583 6.175992 2.467272 -26.64612 9.597868 5.832163 -19.19402 10.79407 86.58557 34.18945 -21.26181 -0 0 14.27749 -6.141654 7.83202 3.320575 6.081474 -20.96289 -1.536347 -95.05446 26.6439 23.57592 0 0 -15.56142 9.427181 15.88593 3.722006
0.93566 102.7654 6.655117 -0.07810272 0.7590184 0.5029438 5.122155 -24.46452 7.691109 -0 31.63543 -0 -6.101481 -12.65481 -2.915039 -6.279143 11.89005 -22.05545 -0 5.292548 -0 5.234862 -20.81233 24.41629 -2.274344 -3.094556 4.657166 3.466403 9.938677 -8.253039 1.269189 21.20876 6.503261 2.701553 -27.18185 9.722737 5.795543 -19.06546 10.9091 87.14668 34.10664 -22.11177 -0 0 13.631 -5.919497 7.587465 3.365948 6.178418 -21.22973 -1.769197 -94.7332 26.81281 23.23411 0 0 -17.01416 9.391775 15.14403 4.002476
1.165354 102.2436 9.032763 -0.5680582 1.556816 0.619238 6.104989 -28.14223 7.500587 -0 28.30481 -0 -6.138693 -10.49727 -2.537312 -5.969946 12.11635 -21.16173 -0 5.668355 -0 5.172262 -21.77304 23.74591 -2.141497 -2.929882 4.484404 3.608234 9.951881 -8.426764 1.175754 20.94927 6.802609 2.925366 -27.63937 9.823081 5.753426 -18.93796 11.011 87.67198 34.06702 -22.87315 -0 0 13.01432 -5.778047 7.393534 3.453725 6.263992 -21.48329 -1.993687 -94.38404 26.93706 22.87576 0 0 -18.39826 9.36053 14.41892 4.274079
1.408905 101.555 11.86304 -0.9710953 2.359544 0.7981219 6.955478 -31.52045 7.152691 -0 24.49239 -0 -6.196668 -8.146706 -2.076221 -5.751462 12.5053 -20.11022 -0 6.359735 -0 5.160727 -22.4932 22.85278 -2.002612 -2.761839 4.316895 3.728376 9.97775 -8.588088 1.083303 20.70275 7.0869 3.14993 -28.05597 9.901579 5.710407 -18.80746 11.10297 88.21338 34.03906 -23.63778 -0 0 12.38335 -5.68695 7.206277 3.572593 6.334911 -21.74347 -2.250941 -94.02709 27.09868 22.52303 0 0 -19.80058 9.273617 13.6801 4.634039
1.664201 100.7498 15.22524 -1.30675 3.162667 1.076302 7.626662 -34.24693 6.67353 -0 20.65172 -0 -6.37141 -5.823642 -1.592585 -5.615311 13.06698 -18.93807 -0 7.621972 -0 4.899465 -22.90916 21.61255 -1.861699 -2.586455 4.171089 3.809352 10.01872 -8.718705 0.9963773 20.48626 7.333111 3.356618 -28.3719 9.939015 5.667954 -18.67505 11.18375 88.72627 34.0597 -24.31701 -0 0 11.77223 -5.699995 7.077025 3.74338 6.379079 -21.98796 -2.514017 -93.64217 27.23055 22.15852 0 0 -21.11764 9.158373 12.95666 5.022847
1.92557 99.92936 19.1872 -1.60614 3.916612 1.485364 8.101573 -35.94441 6.077358 -0 17.25388 -0 -6.75093 -3.736657 -1.140846 -5.53416 13.76746 -17.63936 -0 9.798663 -0 4.141925 -22.85774 19.90287 -1.728999 -2.409513 4.053994 3.844869 10.08241 -8.812642 0.915361 20.31819 7.525493 3.533292 -28.562 9.921574 5.632344 -18.54526 11.25205 89.197 34.12722 -24.89083 -0 0 11.19687 -5.833872 7.009228 3.968188 6.381668 -22.20551 -2.788002 -93.25097 27.35198 21.80955 0 0 -22.29046 8.98328 12.27263 5.469724
2.186107 99.24183 23.7831 -1.92034 4.521847 2.031589 8.441756 -36.25335 5.484325 -0 14.88176 -0 -7.362439 -2.164678 -0.8172512 -5.437152 14.46315 -16.252 -0 13.26232 -0 2.693624 -22.10465 17.69374 -1.617277 -2.234016 3.978386 3.825217 10.1747 -8.858046 0.8409995 20.21985 7.644681 3.663562 -28.58788 9.832059 5.60864 -18.42447 11.30835 89.59104 34.25153 -25.30266 -0 0 10.6868 -6.123086 7.0214 4.259205 6.324636 -22.37543 -3.065296 -92.86785 27.45499 21.49879 0 0 -23.22816 8.730644 11.65558 5.975657
2.442081 98.852 28.99425 -2.292935 4.794406 2.666051 8.758444 -34.95518 5.04735 -0 13.99578 -0 -8.15826 -1.336481 -0.7168493 -5.211629 14.86191 -14.85068 -0 18.35697 -0 0.5600798 -20.36585 15.12444 -1.542942 -2.066243 3.95688 3.742364 10.29935 -8.843764 0.7727631 20.21231 7.675822 3.735019 -28.42169 9.657009 5.601602 -18.32415 11.35408 89.87003 34.43167 -25.49853 -0 0 10.27888 -6.59877 7.118314 4.629191 6.190569 -22.47618 -3.341228 -92.52347 27.55393 21.26936 0 0 -23.84305 8.365566 11.13313 6.564539
2.698512 98.88972 34.72633 -2.715622 4.500512 3.258979 9.119856 -32.10021 4.858888 -0 14.64836 -0 -9.004274 -1.361236 -0.8820503 -4.742218 14.50583 -13.55614 -0 25.2383 -0 -1.971639 -17.46768 12.55136 -1.522576 -1.91047 4.00214 3.589907 10.45321 -8.758462 0.7089248 20.30892 7.613761 3.74234 -28.04656 9.390042 5.611022 -18.25892 11.39344 89.98538 34.66635 -25.41131 -0 0 10.01725 -7.299339 7.303831 5.100275 5.968249 -22.48596 -3.60227 -92.24356 27.65309 21.16189 0 0 -24.06089 7.861747 10.72175 7.248479
2.970787 99.39709 40.80098 -3.076371 3.485018 3.613656 9.425153 -28.01744 4.828928 -0 16.19705 -0 -9.719534 -2.187524 -1.227732 -4.020894 12.85958 -12.46579 -0 33.69438 -0 -4.365434 -13.58667 10.44696 -1.569359 -1.768553 4.123204 3.366215 10.62337 -8.594443 0.6466083 20.5078 7.469588 3.692183 -27.46851 9.03775 5.629136 -18.245 11.43322 89.88655 34.94939 -24.97477 -0 0 9.946701 -8.263492 7.577539 5.701118 5.6597 -22.38936 -3.825782 -92.04274 27.74452 21.20516 0 0 -23.84798 7.209972 10.41883 8.022829
